Coordinates
version=1
nRows=8
nColumns=63
inDegrees=yes

Units are S.I. units (second, meters, Newtons, ...)
If the header above contains a line with 'inDegrees', this indicates whether rotational values are in degrees (yes) or radians (no).

endheader
time	pelvis_tilt	pelvis_list	pelvis_rotation	pelvis_tx	pelvis_ty	pelvis_tz	hip_flexion_r	hip_adduction_r	hip_rotation_r	knee_angle_r	knee_angle_r_beta	ankle_angle_r	subtalar_angle_r	mtp_angle_r	hip_flexion_l	hip_adduction_l	hip_rotation_l	knee_angle_l	knee_angle_l_beta	ankle_angle_l	subtalar_angle_l	mtp_angle_l	L5_S1_Flex_Ext	L5_S1_Lat_Bending	L5_S1_axial_rotation	L4_L5_Flex_Ext	L4_L5_Lat_Bending	L4_L5_axial_rotation	L3_L4_Flex_Ext	L3_L4_Lat_Bending	L3_L4_axial_rotation	L2_L3_Flex_Ext	L2_L3_Lat_Bending	L2_L3_axial_rotation	L1_L2_Flex_Ext	L1_L2_Lat_Bending	L1_L2_axial_rotation	L1_T12_Flex_Ext	L1_T12_Lat_Bending	L1_T12_axial_rotation	Abs_r3	Abs_r2	Abs_r1	Abs_t1	Abs_t2	neck_flexion	neck_bending	neck_rotation	arm_flex_r	arm_add_r	arm_rot_r	elbow_flex_r	pro_sup_r	wrist_flex_r	wrist_dev_r	arm_flex_l	arm_add_l	arm_rot_l	elbow_flex_l	pro_sup_l	wrist_flex_l	wrist_dev_l
      4.35593220	      0.80484925	     -3.27881130	     85.45658008	      0.18631168	      0.87818981	      0.66566605	      1.36052460	     -1.04365023	      1.77443893	      7.12044125	      0.12427514	     25.95271834	     11.67114936	      0.00000000	      3.61123993	     -0.13020582	      0.64859510	     13.01485837	      0.22715213	     26.05798872	     -5.52067618	      0.00000000	     -0.08328760	      0.37571922	      0.86639672	     -0.15467341	      0.49970657	      0.92054652	     -0.13683320	      0.91352372	      0.92054652	     -0.09518940	      0.91352372	      0.75809713	     -0.07734087	      0.76616664	      0.70394734	     -0.04759054	      0.58198908	      0.64979754	     -0.59491502	      4.25021100	      4.81863865	      0.00000000	      0.00000000	     20.41346393	     -2.62115967	     -3.98405553	      2.93733746	    -14.94288303	     99.67848480	     13.16851396	      9.64301622	     -4.87404804	    -14.90668430	      8.55602471	    -10.77070664	    107.93435406	     15.20538374	     14.91202199	     -4.37626031	     -9.46832357
      4.37288136	      0.82636178	     -3.15823608	     85.53135455	      0.18626305	      0.87850409	      0.66595040	      1.29015828	     -0.97962684	      2.09684063	      7.12981518	      0.12443875	     25.96218760	     11.23334737	      0.00000000	      3.59002610	     -0.22719047	      0.01842670	     13.19920978	      0.23036967	     26.67817185	     -4.32437431	      0.00000000	     -0.10330460	      0.37112541	      0.89559741	     -0.19184698	      0.49359680	      0.95157225	     -0.16971913	      0.90235432	      0.95157225	     -0.11806683	      0.90235432	      0.78364774	     -0.09592865	      0.75679894	      0.72767290	     -0.05902825	      0.57487326	      0.67169806	     -0.73789444	      4.19824487	      4.98104413	      0.00000000	      0.00000000	     20.29810711	     -2.98569047	     -4.88091763	      2.89695539	    -14.89739580	     99.88739074	     13.13183645	      9.16971844	     -4.97858860	    -15.01766735	      8.64263428	    -10.84751061	    106.90438334	     15.45933200	     14.60542885	     -4.49473968	     -9.49206170
      4.38983051	      0.77483834	     -3.04038748	     85.48620007	      0.18638396	      0.87876737	      0.66605721	      1.27724338	     -1.00881460	      2.38890301	      7.26692098	      0.12683170	     26.01601140	     11.01575499	      0.00000000	      3.46304214	     -0.19452142	     -0.20059356	     13.17808026	      0.23000089	     26.91166024	     -3.83638582	      0.00000000	     -0.11301456	      0.35918912	      0.94406773	     -0.20987934	      0.47772153	      1.00307196	     -0.18567162	      0.87333243	      1.00307196	     -0.12916434	      0.87333243	      0.82605926	     -0.10494532	      0.73245846	      0.76705503	     -0.06457652	      0.55638395	      0.70805080	     -0.80725170	      4.06321919	      5.25062150	      0.00000000	      0.00000000	     20.14581844	     -2.64505812	     -4.85134749	      2.78691654	    -14.90131899	     99.52351003	     13.21753459	      9.31718063	     -4.95628461	    -14.99538707	      8.75479387	    -10.92018627	    106.59244995	     15.56639342	     15.18156661	     -4.55968905	     -9.33646851
      4.40677966	      0.68604065	     -2.93151024	     85.34844210	      0.18657677	      0.87893423	      0.66605447	      1.36150454	     -1.11985697	      2.08273162	      7.62590590	      0.13309717	     26.23354360	     11.60356380	      0.00000000	      3.31328142	     -0.09488859	     -0.31448991	     13.13594266	      0.22926545	     26.80760890	     -3.85697520	      0.00000000	     -0.11379511	      0.34305731	      1.02114881	     -0.21132889	      0.45626622	      1.08497061	     -0.18695398	      0.83410955	      1.08497061	     -0.13005643	      0.83410955	      0.89350521	     -0.10567014	      0.69956247	      0.82968341	     -0.06502252	      0.53139578	      0.76586161	     -0.81282708	      3.88073292	      5.67932332	      0.00000000	      0.00000000	     19.97371361	     -2.33445979	     -4.89784529	      2.70620671	    -14.81254899	    100.35151592	     13.10645097	      8.27985555	     -4.74811968	    -15.01332869	      8.82314278	    -11.01791266	    105.92633604	     15.65466303	     16.75048218	     -4.64048141	     -8.93712542
      4.42372881	      0.62885873	     -2.85282010	     85.15864849	      0.18691541	      0.87899962	      0.66611423	      1.43773783	     -1.16038753	      2.24480796	      7.93905705	      0.13856269	     26.20996068	     11.45497541	      0.00000000	      3.22307581	     -0.09532145	     -0.98402776	     13.19329302	      0.23026640	     26.70101814	     -3.29805715	      0.00000000	     -0.10781839	      0.33000731	      1.11674669	     -0.20022952	      0.43890972	      1.18654336	     -0.17713483	      0.80237977	      1.18654336	     -0.12322563	      0.80237977	      0.97715336	     -0.10012015	      0.67295091	      0.90735669	     -0.06160743	      0.51118132	      0.83756002	     -0.77013594	      3.73310868	      6.21101008	      0.00000000	      0.00000000	     19.69292833	     -2.07148273	     -5.00162606	      2.33678102	    -14.87087878	     97.77753035	     13.36692288	     10.15695822	     -5.01383675	    -14.85036312	      8.74729156	    -11.21974866	    104.01053608	     15.98885599	     18.67481597	     -4.79052969	     -8.58440933
      4.44067797	      0.56963440	     -2.74693387	     85.20839981	      0.18668144	      0.87915622	      0.66617888	      1.41235442	     -1.25654369	      1.74040781	      8.17106198	      0.14261193	     26.09460131	     11.75698545	      0.00000000	      3.04692302	      0.14334011	      0.44164730	     13.07238818	      0.22815621	     25.76802668	     -5.58918156	      0.00000000	     -0.10655144	      0.32044284	      1.16200924	     -0.19787667	      0.42618898	      1.23463482	     -0.17505336	      0.77912473	      1.23463482	     -0.12177764	      0.77912473	      1.01675809	     -0.09894366	      0.65344705	      0.94413251	     -0.06088349	      0.49636597	      0.87150693	     -0.76108626	      3.62491355	      6.46274680	      0.00000000	      0.00000000	     19.48858106	     -1.75345442	     -4.89319375	      2.45949735	    -14.74436954	    100.51768997	     13.11547279	      7.74090203	     -4.75575109	    -15.12546647	      9.11532574	    -11.08211739	    106.91498763	     15.82321136	     16.71685332	     -4.58620936	     -8.87687226
      4.45762712	      0.52856345	     -2.67377709	     85.17872097	      0.18679242	      0.87918249	      0.66637771	      1.38296406	     -1.31132362	      1.37061333	      8.30875889	      0.14501520	     25.89862277	     11.92834056	      0.00000000	      2.98317493	      0.11612589	     -0.15114044	     13.16789656	      0.22982315	     25.49664135	     -5.11514170	      0.00000000	     -0.10598597	      0.31231066	      1.21271327	     -0.19682654	      0.41537318	      1.28850785	     -0.17412434	      0.75935214	      1.28850785	     -0.12113136	      0.75935214	      1.06112411	     -0.09841857	      0.63686390	      0.98532953	     -0.06056038	      0.48376921	      0.90953495	     -0.75704715	      3.53292065	      6.74474737	      0.00000000	      0.00000000	     19.38858743	     -1.45227759	     -4.74005619	      2.23915539	    -14.84238122	     98.34789899	     13.41080039	      9.56809484	     -5.07357193	    -15.17584811	      9.14433390	    -11.24826294	    105.83934038	     16.11274030	     18.43720895	     -4.82613010	     -8.79105659
      4.47457627	      0.41683498	     -2.62295596	     85.02729950	      0.18680222	      0.87920184	      0.66642200	      1.40379795	     -1.49847985	      0.51805281	      8.50720453	      0.14847873	     25.79708139	     12.76625649	      0.00000000	      2.83137754	      0.43427463	      1.38815189	     13.01565713	      0.22716607	     24.32491024	     -8.14339945	      0.00000000	     -0.10293854	      0.29969731	      1.26663056	     -0.19116716	      0.39859742	      1.34579497	     -0.16911772	      0.72868404	      1.34579497	     -0.11764846	      0.72868404	      1.10830174	     -0.09558873	      0.61114275	      1.02913733	     -0.05881908	      0.46423113	      0.94997292	     -0.73527968	      3.39023590	      7.04461918	      0.00000000	      0.00000000	     19.35030983	     -1.43906892	     -4.86972740	      2.15460509	    -14.77676508	     97.82000432	     13.24574590	     10.06394653	     -4.83479314	    -15.08488370	      9.09889535	    -11.28450184	    105.07386615	     16.09458624	     18.86253097	     -4.37715576	     -8.60218974
